<?xml version="1.0" encoding="UTF-8"?>
<svg width="180px" height="145px" viewBox="0 0 180 145" version="1.1" xmlns="http://www.w3.org/2000/svg" xmlns:xlink="http://www.w3.org/1999/xlink">
    <!-- Generator: Sketch 50 (54983) - http://www.bohemiancoding.com/sketch -->
    <title>search_pic_kong</title>
    <desc>Created with Sketch.</desc>
    <defs>
        <polygon id="path-1" points="0.092488015 0.140659176 122.93893 0.140659176 122.93893 122.98704 0.092488015 122.98704"></polygon>
        <polygon id="path-3" points="0.13308 0 5.98305 0 5.98305 6 0.13308 6"></polygon>
    </defs>
    <g id="图标" stroke="none" stroke-width="1" fill="none" fill-rule="evenodd">
        <g id="全部" transform="translate(-46.000000, -330.000000)">
            <g id="search_pic_kong" transform="translate(46.000000, 330.000000)">
                <g id="空_bg">
                    <g id="Group-3" transform="translate(39.000000, 0.000000)">
                        <mask id="mask-2" fill="white">
                            <use xlink:href="#path-1"></use>
                        </mask>
                        <g id="Clip-2"></g>
                        <path d="M122.346696,53 C122.737101,55.7986317 122.93893,58.6576553 122.93893,61.5638187 C122.93893,95.4869423 95.4388326,122.98704 61.515709,122.98704 C31.8532189,122.98704 7.10165317,101.960986 1.35213361,74 L17.8811189,74 C20.1056783,74 21.9090909,72.2091111 21.9090909,70 C21.9090909,67.7908889 20.1056783,66 17.8811189,66 L0.250229631,66 C0.145665981,64.5348882 0.092488015,63.0555637 0.092488015,61.5638187 C0.092488015,59.3464753 0.209980071,57.1565737 0.439078164,55 L9.52336449,55 C13.6525607,55 17,51.86596 17,48 C17,44.13404 13.6525607,41 9.52336449,41 L3.61926315,41 C4.10087607,39.6441099 4.62876907,38.3101432 5.20104205,37 L8.02542373,37 C9.66830508,37 11,35.6569231 11,34 C11,32.4093267 9.77266814,31.107904 8.22093117,31.0063757 C18.8191739,12.5619439 38.7168533,0.140597753 61.515709,0.140597753 C90.4209514,0.140597753 114.662809,20.1068151 121.202032,47 L114.974576,47 C113.331695,47 112,48.3430769 112,50 C112,51.6569231 113.331695,53 114.974576,53 L122.346696,53 Z" id="Combined-Shape" fill="#EFEFEF" mask="url(#mask-2)"></path>
                    </g>
                    <path d="M66,60.5 C66,63.5375278 63.5203077,66 60.4615385,66 L23.5384615,66 C20.4796923,66 18,63.5375278 18,60.5 C18,57.4624722 20.4796923,55 23.5384615,55 L60.4615385,55 C63.5203077,55 66,57.4624722 66,60.5" id="Fill-6" fill="#EFEFEF"></path>
                    <path d="M77,79.5 C77,82.5375278 74.5203077,85 71.4615385,85 L34.5384615,85 C31.4796923,85 29,82.5375278 29,79.5 C29,76.4624722 31.4796923,74 34.5384615,74 L71.4615385,74 C74.5203077,74 77,76.4624722 77,79.5" id="Fill-8" fill="#EFEFEF"></path>
                    <path d="M169,44 C169,45.6569231 167.668305,47 166.025424,47 L144.974576,47 C143.331695,47 142,45.6569231 142,44 C142,42.3430769 143.331695,41 144.974576,41 L166.025424,41 C167.668305,41 169,42.3430769 169,44" id="Fill-12" fill="#EFEFEF"></path>
                    <path d="M52,39 C52,40.10464 51.1826067,41 50.1741573,41 L40.8258427,41 C39.8173933,41 39,40.10464 39,39 C39,37.89536 39.8173933,37 40.8258427,37 L50.1741573,37 C51.1826067,37 52,37.89536 52,39" id="Fill-16" fill="#EFEFEF"></path>
                    <path d="M11,60.5 C11,63.5375278 8.53752778,66 5.5,66 C2.46247222,66 0,63.5375278 0,60.5 C0,57.4624722 2.46247222,55 5.5,55 C8.53752778,55 11,57.4624722 11,60.5" id="Fill-18" fill="#F0F0F0"></path>
                    <path d="M169,58.5 C169,61.5375278 166.520308,64 163.461538,64 L126.538462,64 C123.479692,64 121,61.5375278 121,58.5 C121,55.4624722 123.479692,53 126.538462,53 L163.461538,53 C166.520308,53 169,55.4624722 169,58.5" id="Fill-20" fill="#EFEFEF"></path>
                    <g id="Group-24" transform="translate(174.000000, 41.000000)">
                        <mask id="mask-4" fill="white">
                            <use xlink:href="#path-3"></use>
                        </mask>
                        <g id="Clip-23"></g>
                        <path d="M5.98308,3 C5.98308,4.65692308 4.67358,6 3.05808,6 C1.44258,6 0.13308,4.65692308 0.13308,3 C0.13308,1.34307692 1.44258,0 3.05808,0 C4.67358,0 5.98308,1.34307692 5.98308,3" id="Fill-22" fill="#EEEEEE" mask="url(#mask-4)"></path>
                    </g>
                    <path d="M173,9.5 C173,11.43298 171.43298,13 169.5,13 C167.56702,13 166,11.43298 166,9.5 C166,7.56702 167.56702,6 169.5,6 C171.43298,6 173,7.56702 173,9.5" id="Fill-25" fill="#E9E9E9"></path>
                    <path d="M157,128.500333 C157,129.328667 156.382856,130 155.621726,130 L35.378274,130 C34.6171445,130 34,129.328667 34,128.500333 L34,128.499667 C34,127.6715 34.6171445,127 35.378274,127 L155.621726,127 C156.382856,127 157,127.6715 157,128.499667 L157,128.500333 Z" id="Fill-29" fill="#E6E6E6"></path>
                    <path d="M175,128.500333 C175,129.328667 174.393484,130 173.645462,130 L162.354538,130 C161.606516,130 161,129.328667 161,128.500333 L161,128.499667 C161,127.6715 161.606516,127 162.354538,127 L173.645462,127 C174.393484,127 175,127.6715 175,128.499667 L175,128.500333 Z" id="Fill-31" fill="#E6E6E6"></path>
                    <path d="M95,137 C95,137.55225 94.7350051,138 94.4081633,138 L66.5918367,138 C66.2649949,138 66,137.55225 66,137 C66,136.44775 66.2649949,136 66.5918367,136 L94.4081633,136 C94.7350051,136 95,136.44775 95,137" id="Fill-33" fill="#F7F7F7"></path>
                    <path d="M75,144 C75,144.55225 74.7350051,145 74.4081633,145 L46.5918367,145 C46.2649949,145 46,144.55225 46,144 C46,143.44775 46.2649949,143 46.5918367,143 L74.4081633,143 C74.7350051,143 75,143.44775 75,144" id="Fill-35" fill="#F7F7F7"></path>
                    <path d="M134,144 C134,144.55225 133.730724,145 133.398601,145 L91.6013986,145 C91.2692762,145 91,144.55225 91,144 C91,143.44775 91.2692762,143 91.6013986,143 L133.398601,143 C133.730724,143 134,143.44775 134,144" id="Fill-37" fill="#EFEFEF"></path>
                    <path d="M164,137 C164,137.55225 163.730724,138 163.398601,138 L121.601399,138 C121.269276,138 121,137.55225 121,137 C121,136.44775 121.269276,136 121.601399,136 L163.398601,136 C163.730724,136 164,136.44775 164,137" id="Fill-39" fill="#F1F1F1"></path>
                    <path d="M101,137 C101,137.5522 100.5522,138 100,138 C99.4478,138 99,137.5522 99,137 C99,136.4478 99.4478,136 100,136 C100.5522,136 101,136.4478 101,137" id="Fill-41" fill="#F3F3F3"></path>
                    <path d="M120,137 C120,137.55225 119.722086,138 119.37931,138 L102.62069,138 C102.277914,138 102,137.55225 102,137 C102,136.44775 102.277914,136 102.62069,136 L119.37931,136 C119.722086,136 120,136.44775 120,137" id="Fill-43" fill="#E6E6E6"></path>
                </g>
                <g id="搜索-(1)" transform="translate(75.975990, 38.000000)" fill="#FFFFFF" fill-rule="nonzero">
                    <path d="M54.5402624,54.272383 C52.5981362,56.2145092 49.4505523,56.2145092 47.5084261,54.272383 L37.8178858,44.5818427 C33.9604213,47.1534857 29.3261062,48.6603078 24.3368509,48.6603078 C10.9093919,48.6603078 0.0200909611,37.7710069 0.0200909611,24.3368509 C0.0200909611,10.9026949 10.9093919,0.0133939741 24.3435479,0.0133939741 C37.7777039,0.0133939741 48.6670048,10.9026949 48.6670048,24.3368509 C48.6670048,29.1854695 47.2472436,33.7059358 44.8028433,37.4964304 L54.5469594,47.2405466 C56.4823887,49.1826728 56.4823887,52.3302567 54.5402624,54.272383 Z M24.3368504,6.20716324 C14.3274213,6.20716324 6.20716278,14.3274218 6.20716278,24.3368509 C6.20716278,34.34628 14.3274213,42.4665386 24.3368504,42.4665386 C34.3462796,42.4665386 42.4665381,34.34628 42.4665381,24.3368509 C42.4744758,14.3274218 34.3542173,6.20716324 24.3368504,6.20716324 Z M32.2459926,34.4493013 C32.1522348,34.5899381 32.011598,34.6903929 31.8307794,34.7305748 C31.4624451,34.8176356 31.0874138,34.5832411 31.00705,34.2149068 C30.9266861,33.8666635 31.1208988,33.5251171 31.4557481,33.4112683 C35.4069705,30.2971694 36.8669136,24.9462767 35.0453332,20.2784768 C34.9984543,20.1847189 34.9783633,20.0842641 34.9783633,19.9771123 C34.9783633,19.5953841 35.2864247,19.2873227 35.668153,19.2873227 C35.9494264,19.2873227 36.190518,19.4547473 36.2976697,19.6958389 L36.3043667,19.6958389 C38.3603418,24.9395797 36.7128829,30.9735651 32.2459926,34.4493013 Z" id="Shape"></path>
                </g>
            </g>
        </g>
    </g>
</svg>